<?xml version="1.0" encoding="UTF-8"?>
<svg fill="#20565D" width="752pt" height="752pt" version="1.1" viewBox="0 0 752 752" xmlns="http://www.w3.org/2000/svg">
  <g>
    <path d="m305.47 502.95c5.918 18.301 1.1953 30.535-4.2539 44.488-4.5977 11.777-9.6328 24.793-7.3359 41.676h14.266c-2.5-14.109 1.6094-24.672 6.2383-36.535 5.3047-13.59 11.168-28.746 5.7891-49.625z" />
    <path d="m474 474.74h-11.434c-4.1914 16.234 0.37109 28.027 4.4961 38.594 3.6094 9.2266 6.8008 17.453 4.8555 28.418h11.09c1.793-13.133-2.125-23.254-5.707-32.422-4.2266-10.84-7.9062-20.359-3.3008-34.59z" />
    <path d="m441.78 294.11c0-64.199-41.727-131.21-129.52-131.21-87.805 0-129.53 67.016-129.53 131.21 0 51.273 39.695 136.24 118.04 168.78l-12.465 25.203c-1.7305 3.4961 0.03125 6.332 3.9297 6.332h40.035c3.9023 0 5.6602-2.8359 3.9297-6.332l-12.469-25.203c78.348-32.543 118.05-117.51 118.05-168.78z" />
    <path d="m569.29 312.3c0-49.93-32.465-102.05-100.75-102.05-10.73 0-20.574 1.2891-29.543 3.6523 14.109 23.297 21.727 51.031 21.727 80.207 0 29.922-11.879 66.898-31.781 98.918-3.1445 5.0625-6.8086 10.473-10.953 16.039-1.0391 1.4141-2.1016 2.8516-3.2031 4.2812 12.496 12.352 27.379 22.992 44.816 30.238l-9.6953 19.605c-1.3398 2.7148 0.027344 4.9258 3.0586 4.9258h31.137c3.0352 0 4.4062-2.2109 3.0586-4.9258l-9.6992-19.605c60.941-25.32 91.828-91.402 91.828-131.29z" />
  </g>
</svg>
