<?xml version="1.0" encoding="UTF-8"?>
<svg fill="#20565D" width="752pt" height="752pt" version="1.1" viewBox="0 0 752 752" xmlns="http://www.w3.org/2000/svg">
  <path d="m490.3 263.04c-0.19141-0.24609-0.37109-0.50391-0.59375-0.73047-0.22656-0.22656-0.48047-0.40234-0.73047-0.59766-29.062-28.727-68.977-46.504-112.97-46.504-44 0-83.914 17.777-112.98 46.512-0.24609 0.1875-0.5 0.36719-0.72656 0.59375-0.22656 0.22656-0.39844 0.47656-0.59375 0.72656-28.723 29.059-46.496 68.973-46.496 112.96 0 44 17.777 83.914 46.512 112.98 0.1875 0.24219 0.36328 0.49609 0.58984 0.71875 0.22656 0.22266 0.47656 0.39844 0.72266 0.58984 29.062 28.738 68.98 46.512 112.98 46.512 43.996 0 83.906-17.773 112.97-46.5 0.24609-0.19141 0.50781-0.375 0.73438-0.59766 0.22656-0.22656 0.40625-0.48438 0.59766-0.73438 28.711-29.062 46.484-68.973 46.484-112.97 0-43.992-17.773-83.902-46.5-112.96zm-6.0117 15.148-16.273 16.273c-1.4453 1.4453-3.3359 2.168-5.2305 2.168s-3.7891-0.72266-5.2305-2.168c-2.8906-2.8906-2.8906-7.5742 0-10.465l16.277-16.273c3.6523 3.3086 7.1445 6.8086 10.457 10.465zm-115.68 11.043c0-4.0859 3.3164-7.3984 7.3984-7.3984 4.0859 0 7.3984 3.3164 7.3984 7.3984v81.902l82.297 35.352c3.7539 1.6172 5.4922 5.9648 3.8789 9.7188-1.2031 2.8047-3.9336 4.4844-6.8008 4.4844-0.97266 0-1.9648-0.19531-2.918-0.60156l-86.777-37.281c-2.7148-1.168-4.4766-3.8398-4.4766-6.8008zm7.3984-59.227c2.4844 0 4.9453 0.066406 7.3984 0.1875v23.094c0 4.0859-3.3164 7.3984-7.3984 7.3984-4.0859 0-7.3984-3.3164-7.3984-7.3984v-23.09c2.4531-0.125 4.918-0.19141 7.3984-0.19141zm-81.539 53.992c2.8906 2.8906 2.8906 7.5742 0 10.469-1.4453 1.4453-3.3398 2.168-5.2344 2.168-1.8945 0-3.7852-0.72266-5.2305-2.1641l-16.277-16.277c3.3125-3.6641 6.8047-7.1562 10.465-10.469zm-64.457 92.008c0-2.4844 0.066406-4.9453 0.1875-7.3984h23.09c4.0859 0 7.3984 3.3164 7.3984 7.3984 0 4.0898-3.3164 7.3984-7.3984 7.3984h-23.09c-0.12109-2.4453-0.1875-4.9141-0.1875-7.3984zm37.715 97.816 16.277-16.277c2.8867-2.8906 7.5781-2.8906 10.465 0 2.8906 2.8906 2.8906 7.5742 0 10.465l-16.277 16.277c-3.6602-3.3086-7.1562-6.8008-10.465-10.465zm108.28 48.184c-2.4844 0-4.9453-0.066406-7.3984-0.1875v-23.094c0-4.0859 3.3164-7.3984 7.3984-7.3984 4.0859 0 7.3984 3.3164 7.3984 7.3984v23.094c-2.4492 0.12109-4.9141 0.1875-7.3984 0.1875zm81.543-53.996c-2.8906-2.8906-2.8906-7.5742 0-10.465 2.8867-2.8906 7.5742-2.8906 10.465 0l16.277 16.277c-3.3125 3.6602-6.8008 7.1562-10.465 10.465zm41.176-84.602c-4.0859 0-7.3984-3.3125-7.3984-7.3984 0-4.0859 3.3164-7.3984 7.3984-7.3984h23.09c0.12109 2.4531 0.1875 4.918 0.1875 7.3984 0 2.4805-0.066406 4.9453-0.1875 7.3984z" />
</svg>
