<?xml version="1.0" encoding="UTF-8"?>
<svg fill="#20565D" width="752pt" height="752pt" version="1.1" viewBox="0 0 752 752" xmlns="http://www.w3.org/2000/svg">
  <g>
    <path d="m339 597.99h73.996c1.9609 0 3.8438-0.77734 5.2344-2.168 1.3867-1.3867 2.1641-3.2695 2.1641-5.2305v-88.797h22.199c1.9648 0 3.8477-0.78125 5.2344-2.168 1.3867-1.3867 2.168-3.2695 2.168-5.2305v-68.887c-0.015625-10.828-4.1914-21.238-11.672-29.07-7.4805-7.832-17.684-12.484-28.5-12.996 2.0859-4.6719 3.168-9.7266 3.1719-14.844 0-13.219-7.0508-25.434-18.5-32.043-11.445-6.6094-25.551-6.6094-36.996 0-11.449 6.6094-18.5 18.824-18.5 32.043 0.003906 5.1172 1.0859 10.172 3.1719 14.844-10.816 0.51172-21.023 5.1641-28.5 12.996-7.4805 7.832-11.66 18.242-11.672 29.07v68.887c0 1.9609 0.78125 3.8438 2.168 5.2305 1.3867 1.3867 3.2695 2.168 5.2305 2.168h22.199v88.797c0 1.9609 0.78125 3.8438 2.168 5.2305 1.3867 1.3906 3.2695 2.168 5.2344 2.168zm-22.199-111v-61.484c0.007812-7.2422 2.8906-14.184 8.0117-19.305 5.1172-5.1172 12.062-8 19.301-8.0078h12.496c3.0859 0.003906 5.8477-1.9102 6.9297-4.7969 1.0859-2.8867 0.26562-6.1445-2.0586-8.1719-4.8711-4.1523-7.6758-10.23-7.6836-16.629 0-7.9297 4.2344-15.258 11.102-19.227 6.8672-3.9648 15.332-3.9648 22.199 0 6.8672 3.9688 11.098 11.297 11.098 19.227-0.003907 6.3984-2.8086 12.477-7.6797 16.629-2.3242 2.0273-3.1445 5.2852-2.0586 8.1719 1.082 2.8867 3.8438 4.8008 6.9297 4.7969h12.496-0.003907c7.2422 0.007812 14.184 2.8906 19.305 8.0078 5.1211 5.1211 8.0039 12.062 8.0117 19.305v61.484h-14.801v-59.195h-14.797v155.39h-22.199v-96.195h-14.801v96.195h-22.199v-155.39h-14.801v59.199z" />
    <path d="m494.4 271.26v-71.699c-0.015626-12.078-4.8203-23.652-13.359-32.191-8.5391-8.5391-20.113-13.344-32.191-13.355h-145.7c-12.074 0.011719-23.652 4.8164-32.191 13.355-8.5391 8.5391-13.34 20.113-13.355 32.191v71.699c0.015625 12.074 4.8164 23.652 13.355 32.191 8.5391 8.5352 20.117 13.34 32.191 13.355h145.7c12.078-0.015626 23.652-4.8203 32.191-13.355 8.5391-8.5391 13.344-20.117 13.359-32.191zm-14.801 0c-0.011718 8.1523-3.2539 15.965-9.0156 21.73-5.7656 5.7656-13.582 9.0078-21.734 9.0156h-145.7c-8.1523-0.007812-15.965-3.25-21.73-9.0156s-9.0078-13.578-9.0156-21.73v-71.699c0.007812-8.1523 3.25-15.969 9.0156-21.73 5.7656-5.7656 13.578-9.0078 21.73-9.0195h145.7c8.1523 0.011718 15.969 3.2539 21.734 9.0195 5.7617 5.7617 9.0039 13.578 9.0156 21.73z" />
    <path d="m316.8 199.77v-16.164h-14.801v16.164c-5.8008 2.0234-10.496 6.3711-12.957 12.004-2.457 5.6289-2.457 12.031 0 17.66 2.4609 5.6328 7.1562 9.9805 12.957 12.004v45.762h14.801v-45.762c5.8008-2.0234 10.496-6.3711 12.953-12.004 2.4609-5.6289 2.4609-12.031 0-17.66-2.457-5.6328-7.1523-9.9805-12.953-12.004zm-7.4023 28.234c-2.9922 0-5.6875-1.8047-6.8359-4.5703-1.1445-2.7617-0.51172-5.9453 1.6055-8.0625s5.3008-2.75 8.0625-1.6055c2.7656 1.1484 4.5703 3.8438 4.5703 6.8398-0.003907 4.082-3.3164 7.3945-7.4023 7.3984z" />
    <path d="m383.4 229.37v-45.762h-14.801v45.762c-5.8008 2.0234-10.496 6.375-12.957 12.004-2.457 5.6289-2.457 12.031 0 17.664 2.4609 5.6289 7.1562 9.9805 12.957 12.004v16.16h14.801v-16.16c5.8008-2.0234 10.496-6.375 12.953-12.004 2.4609-5.6328 2.4609-12.031 0-17.664-2.457-5.6289-7.1523-9.9805-12.953-12.004zm-7.4023 28.234c-2.9922 0-5.6914-1.8008-6.8359-4.5664-1.1445-2.7656-0.51172-5.9492 1.6055-8.0664 2.1172-2.1133 5.2969-2.7461 8.0625-1.6016 2.7656 1.1445 4.5703 3.8438 4.5703 6.8359-0.003906 4.0859-3.3164 7.3945-7.4023 7.3984z" />
    <path d="m450 214.57v-30.961h-14.801v30.961c-5.8008 2.0234-10.496 6.375-12.957 12.004-2.457 5.6328-2.457 12.031 0 17.664 2.4609 5.6289 7.1562 9.9805 12.957 12.004v30.961h14.801v-30.961c5.8008-2.0234 10.496-6.375 12.953-12.004 2.4609-5.6289 2.4609-12.031 0-17.664-2.457-5.6289-7.1523-9.9805-12.953-12.004zm-7.4023 28.238c-2.9922 0-5.6914-1.8047-6.8359-4.5703s-0.51172-5.9492 1.6055-8.0625c2.1172-2.1172 5.2969-2.75 8.0625-1.6055 2.7656 1.1445 4.5703 3.8438 4.5703 6.8359-0.003906 4.0859-3.3164 7.3945-7.4023 7.4023z" />
    <path d="m595.82 548.36-37-37c-2.1133-2.1172-5.2969-2.75-8.0625-1.6016-2.7656 1.1445-4.5664 3.8398-4.5664 6.8359v14.801l-66.598-0.003907c-1.9648 0-3.8438 0.78125-5.2344 2.168-1.3867 1.3867-2.168 3.2695-2.1641 5.2305v29.602c-0.003907 1.9609 0.77734 3.8438 2.1641 5.2305 1.3906 1.3906 3.2695 2.168 5.2344 2.168h66.598v14.801c0 2.9922 1.8008 5.6914 4.5664 6.8359 2.7656 1.1445 5.9492 0.51172 8.0625-1.6055l37-37c1.3867-1.3867 2.168-3.2695 2.168-5.2305s-0.78125-3.8438-2.168-5.2305zm-34.832 24.367v-4.3359c0.003906-1.9648-0.77734-3.8477-2.1641-5.2344-1.3906-1.3867-3.2695-2.168-5.2344-2.168h-66.598v-14.797h66.598c1.9648 0 3.8438-0.78125 5.2344-2.168 1.3867-1.3867 2.168-3.2695 2.1641-5.2344v-4.3359l19.137 19.137z" />
    <path d="m193.18 595.82c2.1172 2.1172 5.3008 2.75 8.0664 1.6055 2.7617-1.1445 4.5664-3.8438 4.5664-6.8359v-14.801h66.598c1.9609 0 3.8438-0.77734 5.2305-2.168 1.3906-1.3867 2.168-3.2695 2.168-5.2305v-29.602c0-1.9609-0.77734-3.8438-2.168-5.2305-1.3867-1.3867-3.2695-2.168-5.2305-2.168h-66.598v-14.797c0-2.9961-1.8047-5.6914-4.5664-6.8359-2.7656-1.1484-5.9492-0.51562-8.0664 1.6016l-37 37h0.003907c-1.3906 1.3867-2.168 3.2695-2.168 5.2305 0 1.9648 0.77734 3.8438 2.168 5.2344zm-2.168-61.363v4.332c0 1.9648 0.78125 3.8477 2.168 5.2344 1.3867 1.3867 3.2695 2.168 5.2344 2.168h66.598v14.801l-66.598-0.003906c-1.9648 0-3.8477 0.78125-5.2344 2.168-1.3867 1.3867-2.168 3.2695-2.168 5.2344v4.3359l-19.133-19.137z" />
  </g>
</svg>
