<?xml version="1.0" encoding="UTF-8"?>
<svg fill="#20565D" width="752pt" height="752pt" version="1.1" viewBox="0 0 752 752" xmlns="http://www.w3.org/2000/svg">
  <g>
    <path d="m338.39 274.86c11.465-4.793 23.531-7.2266 35.859-7.2266 29.477 0 56.781 13.75 74.355 37.047 0.24609-0.52734 0.55078-1.0938 0.75391-1.5977 16.555-40.336-2.5156-86.543-42.59-103.2-40.082-16.664-85.992 2.5391-102.54 42.875-1.5352 3.7305-2.8086 8.6289-3.875 14.434-1.0781-5.8398-2.3711-10.758-3.918-14.5-16.633-40.312-62.578-59.41-102.63-42.66-40.051 16.727-59.027 62.977-42.391 103.28 16.371 39.668 149.21 155.55 149.21 155.55s7.5508-6.6172 19.203-17.172c-15.344-17.281-27.32-32.977-31.887-44.039-19.746-47.832 2.8867-102.91 50.445-122.79z" />
    <path d="m557.11 288.51c-40.078-16.664-85.988 2.5391-102.54 42.875-1.5352 3.7305-2.8164 8.625-3.875 14.43-1.0781-5.8398-2.3789-10.754-3.918-14.5-16.637-40.312-62.582-59.41-102.63-42.664-40.051 16.738-59.027 62.984-42.391 103.29 16.367 39.668 149.22 155.55 149.22 155.55s132.43-116.03 148.72-155.77c16.566-40.34-2.5117-86.547-42.594-103.21z" />
  </g>
</svg>
